<svg id="Layer_1" data-name="Layer 1" xmlns="http://www.w3.org/2000/svg" viewBox="0 0 148.43 61.99">
  <g>
    <path d="M48.93,111.1H36.13l-1.7,5.2h-9.3L37,81.3h11l11.9,35H50.63Zm-2.4-7.4-4-12.15-4,12.15Z" transform="translate(-25 -72.95)"/>
    <path d="M78.48,90.8v10a3.83,3.83,0,0,0-1.25-.15c-3.15,0-5.25,1.85-5.25,5.6v10H63v-25h9l-.2,4.4C72.63,92.7,75,91,78.48,90.8Z" transform="translate(-25 -72.95)"/>
    <path d="M100.53,108.3v7.9a11.19,11.19,0,0,1-5.5,1c-6.6,0-10.2-3.75-10.2-10.1v-7.5h-4.5V92.2c5-.75,5.2-2,5.6-7.2h7.9v6.3h6.4v8.35h-6.4v5.1c0,3.35,1.55,4.35,3.75,4.35A5.15,5.15,0,0,0,100.53,108.3Z" transform="translate(-25 -72.95)"/>
    <path d="M131.28,103.45c0,9-4.55,13.8-10.5,13.8a8.24,8.24,0,0,1-6.85-3v11h-9v-34h9l-.2,2.9a8.3,8.3,0,0,1,7.2-3.85C126.63,90.35,131.28,94.65,131.28,103.45Zm-9,.8c0-2.8-1.7-4.65-4.25-4.65s-4.3,1.75-4.3,4.65,1.9,4.9,4.3,4.9S122.28,107.4,122.28,104.25Z" transform="translate(-25 -72.95)"/>
    <path d="M134.42,82.6c0-2.85,1.9-5,5.75-5s5.71,2.2,5.71,5c0,3.35-2.15,5.55-5.71,5.55S134.42,86,134.42,82.6Zm1.25,8.7h9v25h-9Z" transform="translate(-25 -72.95)"/>
    <path d="M172.83,106.35H158.22c.5,2.25,2.05,3.45,5.81,3.45a16.14,16.14,0,0,0,8.15-1.9v7.6a22.18,22.18,0,0,1-9.06,1.75c-7.45,0-14.15-3.5-14.15-13,0-8.3,5.3-13.85,12.7-13.85,6.91,0,11.76,4.05,11.76,11.6A15.35,15.35,0,0,1,172.83,106.35Zm-14.71-3.8h7a3.14,3.14,0,0,0-3.5-3A3.29,3.29,0,0,0,158.12,102.55Z" transform="translate(-25 -72.95)"/>
  </g>
  <rect y="47.05" width="77" height="5"/>
  <rect x="92" y="47.05" width="56" height="5"/>
  <g>
    <path d="M130.1,131.24a3.45,3.45,0,0,1,3.67-3.64,4.28,4.28,0,0,1,1.61.27V130a2.81,2.81,0,0,0-1.53-.42,1.69,1.69,0,0,0-1.9,1.74,1.77,1.77,0,0,0,1.91,2,2.62,2.62,0,0,0,1.52-.43v1.78a3.73,3.73,0,0,1-1.61.32A3.42,3.42,0,0,1,130.1,131.24Z" transform="translate(-25 -72.95)"/>
    <path d="M141.13,133.09v1.68h-4.65v-7h1.85v5.32Z" transform="translate(-25 -72.95)"/>
    <path d="M142,127.77h1.85v7H142Z" transform="translate(-25 -72.95)"/>
    <path d="M151.14,127.77v7h-1.65l-2.59-4.19v4.19h-1.72v-7H147l2.41,3.89v-3.89Z" transform="translate(-25 -72.95)"/>
    <path d="M152.52,127.77h1.85v7h-1.85Z" transform="translate(-25 -72.95)"/>
    <path d="M155.39,131.24a3.45,3.45,0,0,1,3.67-3.64,4.28,4.28,0,0,1,1.61.27V130a2.81,2.81,0,0,0-1.53-.42,1.69,1.69,0,0,0-1.9,1.74,1.77,1.77,0,0,0,1.91,2,2.62,2.62,0,0,0,1.52-.43v1.78a3.73,3.73,0,0,1-1.61.32A3.42,3.42,0,0,1,155.39,131.24Z" transform="translate(-25 -72.95)"/>
  </g>
  <g>
    <path d="M71.35,79.87V78.12a4,4,0,0,0,2.22.57c.82,0,1.15-.2,1.15-.63,0-1.12-3.43,0-3.43-2.79,0-1.42,1-2.29,2.89-2.29a4.08,4.08,0,0,1,2,.43v1.94a5,5,0,0,0-2.07-.42c-.74,0-1.06.16-1.06.51,0,1,3.42.06,3.44,2.65,0,1.5-1,2.23-3.07,2.23A4.59,4.59,0,0,1,71.35,79.87Z" transform="translate(-25 -72.95)"/>
    <path d="M83.59,73.15v7H81.74V77.58H79.4v2.57H77.56v-7H79.4v2.62h2.34V73.15Z" transform="translate(-25 -72.95)"/>
    <path d="M84.62,76.62A3.44,3.44,0,0,1,88.15,73a3.34,3.34,0,0,1,3.52,3.59,3.51,3.51,0,0,1-3.52,3.75A3.42,3.42,0,0,1,84.62,76.62Zm5.24.07a1.72,1.72,0,1,0-3.44,0,1.73,1.73,0,1,0,3.44,0Z" transform="translate(-25 -72.95)"/>
    <path d="M97.53,78.72v1.43H92.69v-7h4.74v1.73H94.54V76h2.72v1.43H94.54v1.27Z" transform="translate(-25 -72.95)"/>
    <path d="M106.39,80.25l-.83-.67a3.52,3.52,0,0,1-2.33.74c-1.71,0-2.6-.66-2.6-1.89a2,2,0,0,1,1.24-1.87,2.38,2.38,0,0,1-.73-1.72c0-1.17.88-1.89,2.3-1.89s2.16.69,2.16,1.92c0,.82-.42,1.53-1.73,2.13l1,.83a3.35,3.35,0,0,0,.15-1.08h1.64a4.26,4.26,0,0,1-.52,2.1l.81.66Zm-2.07-1.67-1.42-1.15a.82.82,0,0,0-.42.7c0,.44.28.67.9.67A1.79,1.79,0,0,0,104.32,78.58Zm-1.48-3.16a1.31,1.31,0,0,0,.16.65c.73-.32.91-.52.91-.77s-.16-.42-.5-.42A.51.51,0,0,0,102.84,75.42Z" transform="translate(-25 -72.95)"/>
    <path d="M115.2,78.1c0,1.36-1,2.05-2.68,2.05H109.8v-7h2.94c1.59,0,2.35.63,2.35,1.88a1.72,1.72,0,0,1-.8,1.47A1.59,1.59,0,0,1,115.2,78.1Zm-3.55-3.33v1.3h.84c.57,0,.8-.26.8-.66s-.23-.64-.8-.64Zm1.75,3.32c0-.42-.23-.69-.81-.69h-.94v1.39h.93C113.14,78.79,113.4,78.54,113.4,78.09Z" transform="translate(-25 -72.95)"/>
    <path d="M120.28,79.11h-2.56l-.34,1h-1.86l2.38-7h2.21l2.38,7h-1.87Zm-.48-1.48L119,75.2l-.8,2.43Z" transform="translate(-25 -72.95)"/>
    <path d="M128.7,76.59v3.14a5.77,5.77,0,0,1-2.49.51,3.26,3.26,0,0,1-3.54-3.6A3.52,3.52,0,0,1,126.5,73a4.47,4.47,0,0,1,1.73.27v2a3.67,3.67,0,0,0-1.66-.36c-1.43,0-2.06.76-2.06,1.83a1.69,1.69,0,0,0,1.84,1.89,3.16,3.16,0,0,0,.66-.06v-2Z" transform="translate(-25 -72.95)"/>
  </g>
</svg>
