<svg xmlns="http://www.w3.org/2000/svg" viewBox="0 0 425.28 448.77">
  <defs>
    <style>
      .cls-1 {
        font-size: 38px;
        font-family: Inter-SemiBold, Inter;
        font-weight: 600;
        letter-spacing: 0em;
      }

      .cls-1, .cls-10, .cls-2, .cls-3, .cls-5, .cls-8 {
        fill: #f36c21;
      }

      .cls-1, .cls-2, .cls-3, .cls-4 {
        stroke: #f36c21;
        stroke-miterlimit: 10;
      }

      .cls-2 {
        font-size: 23px;
        font-family: Inter-Regular, Inter;
        letter-spacing: 0em;
      }

      .cls-4 {
        fill: none;
        stroke-width: 21px;
      }

      .cls-10, .cls-5, .cls-8 {
        font-size: 22px;
      }

      .cls-5 {
        font-family: Inter-ExtraBold, Inter;
        font-weight: 800;
      }

      .cls-5, .cls-8 {
        letter-spacing: 0em;
      }

      .cls-6 {
        letter-spacing: -0.04em;
      }

      .cls-10, .cls-7 {
        letter-spacing: 0em;
      }

      .cls-10, .cls-8 {
        font-family: Inter-Bold, Inter;
        font-weight: 700;
      }

      .cls-9 {
        letter-spacing: -0.04em;
      }
    </style>
  </defs>
  <g id="Layer_3_copy" data-name="Layer 3 copy">
    <g id="Layer_4_copy" data-name="Layer 4 copy">
      <text class="cls-1" transform="translate(148.64 381.44)">ARTPIE</text>
      <text class="cls-2" transform="translate(178.69 404.19)">CLINIC</text>
    </g>
  </g>
  <g id="Layer_3" data-name="Layer 3">
    <g id="Layer_1" data-name="Layer 1">
      <path class="cls-3" d="M368,371.28s30.32,11.06,34.63,31c4.47,20.76,7.46,41.36,7.37,62.53,0,2.89,2.58,27.74-4.31,27.74-15.3-.11-161.87-.22-181.82-.85-8.32,0-5.35-39.78-4.71-56.39,2.39-13.58,5.24-34,11.55-44.61,6.48-13.58,34-20,34-20a59.07,59.07,0,0,0-5,20.14c-1.77,32,7.55,51,7.55,51s-6.67,7.48-1,14c4.91,6.42,14,1.7,14,1.7s8.93-4.47,3.27-14.73c-3.59-5-8.5-4-8.5-4-2.77-6.29-7.46-24.77-7.55-34.9-1.13-16.2,5.16-33.19,5.16-33.19l11.16-41.64,29.84-13.83,25.4,13.13s8.46,30.44,9.31,30.8c-3.21,1.54-31.32,13.47-31.32,13.47l4.53,9-.08,23.78,8.45-11.24,5.43-29.5,12.73-5.94s13,8.11,14.17,10.77c0,.3-4.22,20.72-4.22,20.72s-6.85.05-9.54,2.4c-7,6.14-10.11,14.16-13.59,25.68-2,6.73-5.71,19.13-4.37,22.15,1.51,5.62,11.58,6.29,11.58,6.29l2.35-7.72-6.29-2.26s6.63-43.65,21-40.75,1.4,47.32,1.4,47.32l-8-1.5-1.87,7.26s7.1,4.79,12.47,1.93c4.4-2.34,5.85-10.22,7.13-15.69s5-29,.25-37.68c-.83-2.85-6.35-6.29-6.35-6.29ZM305.33,405.4l-.54-23.35,5.51-9.21-18.21-7.08,3,31.88Z" transform="translate(-100.46 -151)"/>
      <path class="cls-3" d="M267.26,306.59c-2.24-3.83-1.53-9.66-1.34-14.58.18-4.35,2.81-8.94,2-12.94-3.79-18.75,7.82-38.84,26.1-44.53,2.61-.81,4.58-3.72,7.09-5.87l5.53.43,2.05.15.5.13c.57.14,1.13.3,1.69.46,1.43.42,2.86.89,4.29,1.32,4.9,1.47,9.82,2.49,15-.51l7,.32,7.38,4.21-.11-.11,4.1,7.6c12.59,10.87,19.26,23.41,12.36,40.43-.9,2.23.5,5.9,1.78,8.42,4,7.79,2,15-5.64,19.47-5,3-7.94,10.36-15.74,7.14L333.41,315c-.18-1.2-.71-3.38-.47-3.47,5-1.84,10-3.44,14.53-4.92l9.11-21.47H271.33l8.34,14.77c1.29,2.56,2.57,5.12,3.86,7.67,2.13,1.16,4.31,2.23,6.39,3.48,1.76,1.06,3.4,2.32,5.1,3.49l-3.44.39c-2.94,1-8.86,6.79-8.86,6.79S270.12,311.48,267.26,306.59Z" transform="translate(-100.46 -151)"/>
      <path class="cls-3" d="M348.54,245.29l-4.1-7.6Z" transform="translate(-100.46 -151)"/>
      <path class="cls-3" d="M344.55,237.81l-7.38-4.22Z" transform="translate(-100.46 -151)"/>
      <path class="cls-3" d="M306.64,303.82l2.22-11.27,9.18,0q1.81,7.52,3.64,15c-3.7.09-15.82-.07-15.82-.07Z" transform="translate(-100.46 -151)"/>
      <path class="cls-3" d="M307.65,229.17s2.33-.87,8.58-.5,11,.52,13.95,2,1.86,1.47,5.71,2.94-25.78,10.26-25.78,10.26l-10.6-2.36Z" transform="translate(-100.46 -151)"/>
      <path class="cls-3" d="M294,313.82" transform="translate(-100.46 -151)"/>
      <ellipse class="cls-4" cx="212.64" cy="224.39" rx="202.14" ry="213.89"/>
      <polyline class="cls-3" points="183.07 156.55 192.67 156.55 204.67 156.55 206.46 153.41 210.29 153.41 216.8 153.41 219.96 153.41 221.91 156.55 225.99 156.55 233.27 156.55 242.2 156.55 247.92 156.55"/>
      <polyline class="cls-3" points="181.69 157.91 184.33 156.55 179.06 156.55"/>
      <polyline class="cls-3" points="238.03 167.92 242.8 169.96 248.42 166.08 251.31 162.82 243.23 156.55"/>
      <polyline class="cls-3" points="207.4 151.21 209.35 148.04 217.27 148.04 219.96 153.41"/>
      <polygon class="cls-3" points="197.27 156.55 203.14 156.55 204.25 156.55 212.31 156.62 200.98 161.55 191.16 166.33 182.46 169.96 179.7 165.57 178.29 160.29 180.08 156.55 197.27 156.55"/>
      <polygon class="cls-3" points="221.91 156.55 213.19 156.55 235 166.53 242.8 169.96 245.1 166.76 246.54 162 244.84 156.55 221.91 156.55"/>
    </g>
  </g>
  <g id="Layer_6" data-name="Layer 6">
    <text class="cls-5" transform="translate(139.04 64.5)">SHOES & B<tspan class="cls-6" x="115.41" y="0">A</tspan><tspan class="cls-7" x="131.61" y="0">G</tspan></text>
    <text class="cls-8" transform="translate(70.22 194.27)">est<tspan class="cls-9" x="33.99" y="0">.</tspan></text>
    <text class="cls-10" transform="translate(309.02 194.65)">2021</text>
  </g>
</svg>
